<?xml version="1.0" encoding="UTF-8" standalone="no"?>
<!DOCTYPE svg PUBLIC "-//W3C//DTD SVG 1.1//EN"
 "http://www.w3.org/Graphics/SVG/1.1/DTD/svg11.dtd">
<!-- Generated by graphviz version 2.48.0 (20210717.1556)
 -->
<!-- Title: LDA Pages: 1 -->
<svg width="152pt" height="290pt"
 viewBox="0.00 0.00 152.00 290.00" xmlns="http://www.w3.org/2000/svg" xmlns:xlink="http://www.w3.org/1999/xlink">
<g id="graph0" class="graph" transform="scale(1 1) rotate(0) translate(4 286)">
<title>LDA</title>
<polygon fill="white" stroke="transparent" points="-4,4 -4,-286 148,-286 148,4 -4,4"/>
<g id="clust2" class="cluster">
<title>cluster_D</title>
<polygon fill="none" stroke="black" points="8,-8 8,-238 76,-238 76,-8 8,-8"/>
<text text-anchor="middle" x="42" y="-222.8" font-family="Times,serif" font-size="14.00">D</text>
</g>
<g id="clust3" class="cluster">
<title>cluster_t</title>
<polygon fill="none" stroke="black" points="16,-16 16,-163 68,-163 68,-16 16,-16"/>
<text text-anchor="middle" x="42" y="-147.8" font-family="Times,serif" font-size="14.00">N</text>
</g>
<g id="clust1" class="cluster">
<title>cluster_K</title>
<polygon fill="none" stroke="black" points="84,-88 84,-163 136,-163 136,-88 84,-88"/>
<text text-anchor="middle" x="110" y="-147.8" font-family="Times,serif" font-size="14.00">K</text>
</g>
<!-- w -->
<g id="node1" class="node">
<title>w</title>
<ellipse fill="gray" stroke="gray" cx="42" cy="-42" rx="18" ry="18"/>
<text text-anchor="middle" x="42" y="-38.3" font-family="Times,serif" font-size="14.00">w</text>
</g>
<!-- Φ -->
<g id="node2" class="node">
<title>Φ</title>
<ellipse fill="none" stroke="black" cx="110" cy="-114" rx="18" ry="18"/>
<text text-anchor="middle" x="110" y="-110.3" font-family="Times,serif" font-size="14.00">Φ</text>
</g>
<!-- Φ&#45;&gt;w -->
<g id="edge1" class="edge">
<title>Φ&#45;&gt;w</title>
<path fill="none" stroke="gray" d="M97.84,-100.49C87.69,-90.03 73.03,-74.94 61.28,-62.84"/>
<polygon fill="gray" stroke="gray" points="63.53,-60.14 54.05,-55.41 58.51,-65.02 63.53,-60.14"/>
</g>
<!-- α -->
<g id="node3" class="node">
<title>α</title>
<ellipse fill="none" stroke="black" cx="42" cy="-264" rx="18" ry="18"/>
<text text-anchor="middle" x="42" y="-260.3" font-family="Times,serif" font-size="14.00">α</text>
</g>
<!-- Θ -->
<g id="node4" class="node">
<title>Θ</title>
<ellipse fill="none" stroke="black" cx="42" cy="-189" rx="18" ry="18"/>
<text text-anchor="middle" x="42" y="-185.3" font-family="Times,serif" font-size="14.00">Θ</text>
</g>
<!-- α&#45;&gt;Θ -->
<g id="edge2" class="edge">
<title>α&#45;&gt;Θ</title>
<path fill="none" stroke="gray" d="M42,-245.7C42,-237.25 42,-226.87 42,-217.37"/>
<polygon fill="gray" stroke="gray" points="45.5,-217.18 42,-207.18 38.5,-217.18 45.5,-217.18"/>
</g>
<!-- z -->
<g id="node6" class="node">
<title>z</title>
<ellipse fill="none" stroke="black" cx="42" cy="-114" rx="18" ry="18"/>
<text text-anchor="middle" x="42" y="-110.3" font-family="Times,serif" font-size="14.00">z</text>
</g>
<!-- Θ&#45;&gt;z -->
<g id="edge4" class="edge">
<title>Θ&#45;&gt;z</title>
<path fill="none" stroke="gray" d="M42,-170.7C42,-162.25 42,-151.87 42,-142.37"/>
<polygon fill="gray" stroke="gray" points="45.5,-142.18 42,-132.18 38.5,-142.18 45.5,-142.18"/>
</g>
<!-- β -->
<g id="node5" class="node">
<title>β</title>
<ellipse fill="none" stroke="black" cx="110" cy="-189" rx="18" ry="18"/>
<text text-anchor="middle" x="110" y="-185.3" font-family="Times,serif" font-size="14.00">β</text>
</g>
<!-- β&#45;&gt;Φ -->
<g id="edge3" class="edge">
<title>β&#45;&gt;Φ</title>
<path fill="none" stroke="gray" d="M110,-170.7C110,-162.25 110,-151.87 110,-142.37"/>
<polygon fill="gray" stroke="gray" points="113.5,-142.18 110,-132.18 106.5,-142.18 113.5,-142.18"/>
</g>
<!-- z&#45;&gt;w -->
<g id="edge5" class="edge">
<title>z&#45;&gt;w</title>
<path fill="none" stroke="gray" d="M42,-95.7C42,-87.98 42,-78.71 42,-70.11"/>
<polygon fill="gray" stroke="gray" points="45.5,-70.1 42,-60.1 38.5,-70.1 45.5,-70.1"/>
</g>
</g>
</svg>
