<?xml version="1.0" encoding="UTF-8" standalone="no"?>
<!DOCTYPE svg PUBLIC "-//W3C//DTD SVG 1.1//EN"
 "http://www.w3.org/Graphics/SVG/1.1/DTD/svg11.dtd">
<!-- Generated by graphviz version 2.48.0 (20210717.1556)
 -->
<!-- Title: LDA Pages: 1 -->
<svg width="152pt" height="298pt"
 viewBox="0.00 0.00 152.00 298.00" xmlns="http://www.w3.org/2000/svg" xmlns:xlink="http://www.w3.org/1999/xlink">
<g id="graph0" class="graph" transform="scale(1 1) rotate(0) translate(4 294)">
<title>LDA</title>
<polygon fill="white" stroke="transparent" points="-4,4 -4,-294 148,-294 148,4 -4,4"/>
<g id="clust1" class="cluster">
<title>cluster_K</title>
<polygon fill="none" stroke="black" points="84,-171 84,-246 136,-246 136,-171 84,-171"/>
<text text-anchor="middle" x="110" y="-230.8" font-family="Times,serif" font-size="14.00">K</text>
</g>
<g id="clust2" class="cluster">
<title>cluster_D</title>
<polygon fill="none" stroke="black" points="8,-8 8,-246 76,-246 76,-8 8,-8"/>
<text text-anchor="middle" x="42" y="-230.8" font-family="Times,serif" font-size="14.00">D</text>
</g>
<g id="clust3" class="cluster">
<title>cluster_t</title>
<polygon fill="none" stroke="black" points="16,-16 16,-163 68,-163 68,-16 16,-16"/>
<text text-anchor="middle" x="42" y="-147.8" font-family="Times,serif" font-size="14.00">N</text>
</g>
<!-- w -->
<g id="node1" class="node">
<title>w</title>
<ellipse fill="gray" stroke="gray" cx="42" cy="-42" rx="18" ry="18"/>
<text text-anchor="middle" x="42" y="-38.3" font-family="Times,serif" font-size="14.00">w</text>
</g>
<!-- Φ -->
<g id="node2" class="node">
<title>Φ</title>
<ellipse fill="none" stroke="black" cx="110" cy="-197" rx="18" ry="18"/>
<text text-anchor="middle" x="110" y="-193.3" font-family="Times,serif" font-size="14.00">Φ</text>
</g>
<!-- Φ&#45;&gt;w -->
<g id="edge1" class="edge">
<title>Φ&#45;&gt;w</title>
<path fill="none" stroke="gray" d="M103.87,-179.89C96.18,-159.98 82.38,-125.16 69,-96 64.64,-86.49 59.5,-76.2 54.88,-67.24"/>
<polygon fill="gray" stroke="gray" points="57.86,-65.39 50.13,-58.14 51.65,-68.63 57.86,-65.39"/>
</g>
<!-- α -->
<g id="node3" class="node">
<title>α</title>
<ellipse fill="none" stroke="black" cx="42" cy="-272" rx="18" ry="18"/>
<text text-anchor="middle" x="42" y="-268.3" font-family="Times,serif" font-size="14.00">α</text>
</g>
<!-- Θ -->
<g id="node4" class="node">
<title>Θ</title>
<ellipse fill="none" stroke="black" cx="42" cy="-197" rx="18" ry="18"/>
<text text-anchor="middle" x="42" y="-193.3" font-family="Times,serif" font-size="14.00">Θ</text>
</g>
<!-- α&#45;&gt;Θ -->
<g id="edge2" class="edge">
<title>α&#45;&gt;Θ</title>
<path fill="none" stroke="gray" d="M42,-253.7C42,-245.25 42,-234.87 42,-225.37"/>
<polygon fill="gray" stroke="gray" points="45.5,-225.18 42,-215.18 38.5,-225.18 45.5,-225.18"/>
</g>
<!-- z -->
<g id="node6" class="node">
<title>z</title>
<ellipse fill="none" stroke="black" cx="42" cy="-114" rx="18" ry="18"/>
<text text-anchor="middle" x="42" y="-110.3" font-family="Times,serif" font-size="14.00">z</text>
</g>
<!-- Θ&#45;&gt;z -->
<g id="edge4" class="edge">
<title>Θ&#45;&gt;z</title>
<path fill="none" stroke="gray" d="M42,-178.82C42,-168.19 42,-154.31 42,-142.2"/>
<polygon fill="gray" stroke="gray" points="45.5,-142.15 42,-132.15 38.5,-142.15 45.5,-142.15"/>
</g>
<!-- β -->
<g id="node5" class="node">
<title>β</title>
<ellipse fill="none" stroke="black" cx="110" cy="-272" rx="18" ry="18"/>
<text text-anchor="middle" x="110" y="-268.3" font-family="Times,serif" font-size="14.00">β</text>
</g>
<!-- β&#45;&gt;Φ -->
<g id="edge3" class="edge">
<title>β&#45;&gt;Φ</title>
<path fill="none" stroke="gray" d="M110,-253.7C110,-245.25 110,-234.87 110,-225.37"/>
<polygon fill="gray" stroke="gray" points="113.5,-225.18 110,-215.18 106.5,-225.18 113.5,-225.18"/>
</g>
<!-- z&#45;&gt;w -->
<g id="edge5" class="edge">
<title>z&#45;&gt;w</title>
<path fill="none" stroke="gray" d="M42,-95.7C42,-87.98 42,-78.71 42,-70.11"/>
<polygon fill="gray" stroke="gray" points="45.5,-70.1 42,-60.1 38.5,-70.1 45.5,-70.1"/>
</g>
</g>
</svg>
